<svg width="23" height="22" viewBox="0 0 23 22" fill="none" xmlns="http://www.w3.org/2000/svg">
<path d="M0.162354 5C0.162354 2.23858 2.40093 0 5.16235 0H17.1624C19.9238 0 22.1624 2.23858 22.1624 5V17C22.1624 19.7614 19.9238 22 17.1624 22H5.16235C2.40093 22 0.162354 19.7614 0.162354 17V5Z" fill="black"/>
<path d="M12.6624 13.1429C12.6624 13.3796 12.4945 13.5714 12.2874 13.5714H10.0374C9.83017 13.5714 9.66235 13.3796 9.66235 13.1429V11.8571H5.16235V15.7143C5.16235 16.4 5.68735 17 6.28735 17H16.0374C16.6374 17 17.1624 16.4 17.1624 15.7143V11.8571H12.6624V13.1429ZM16.0374 7.57143H14.1624V6.28571C14.1624 5.6 13.6374 5 13.0374 5H9.28735C8.68735 5 8.16235 5.6 8.16235 6.28571V7.57143H6.28735C5.68735 7.57143 5.16235 8.17143 5.16235 8.85714V11H17.1624V8.85714C17.1624 8.17143 16.6374 7.57143 16.0374 7.57143ZM12.6624 7.57143H9.66235V6.71429H12.6624V7.57143Z" fill="white"/>
</svg>
